<mxfile host="app.diagrams.net" modified="2024-05-19T03:44:15.613Z" agent="Mozilla/5.0 (Windows NT 10.0; Win64; x64) AppleWebKit/537.36 (KHTML, like Gecko) Chrome/124.0.0.0 Safari/537.36" version="24.4.4" etag="0r0O8jV-Zk97oKUd7dui" type="github">
  <diagram name="페이지-1" id="DStpKzFTtnT2_nLyxCj8">
    <mxGraphModel>
      <root>
        <mxCell id="0" />
        <mxCell id="1" parent="0" />
      </root>
    </mxGraphModel>
  </diagram>
</mxfile>
